# xmcd CD database file
#
# Track frame offsets:
#	150
#	17031
#	36736
#	49279
#	66674
#	70678
#	90408
#	113302
#	142710
#	157471
#	175694
#	187259
#	215504
#	222249
#
# Disc length: 2973 seconds
#
# Revision: 2
# Processed by: cddbd v1.4b41PL1 Copyright (c) Steve Scherf et al.
# Submitted via: Feurio! 1.51.16ß - http://www.feurio.com
#
DISCID=d20b9b0e
DTITLE=Tronzo Trio - ROOTS
DYEAR=1900
DGENRE=
TTITLE0=Rules Of My Heart
TTITLE1=# 13
TTITLE2=Precious Time
TTITLE3=Monk´s Dream
TTITLE4=Talking Drums
TTITLE5=Blues For Me
TTITLE6=Rockin´in Rhythm
TTITLE7=Sadness
TTITLE8=Son House
TTITLE9=Listen Here
TTITLE10=Kneehead
TTITLE11=Yo Hey
TTITLE12=Watch Bite
TTITLE13=The Wild Puppy
EXTD=
EXTT0=
EXTT1=
EXTT2=
EXTT3=
EXTT4=
EXTT5=
EXTT6=
EXTT7=
EXTT8=
EXTT9=
EXTT10=
EXTT11=
EXTT12=
EXTT13=
PLAYORDER=
